<svg xmlns="http://www.w3.org/2000/svg" width="24" height="24" viewBox="0 0 24 24">
    <g fill="none" fill-rule="evenodd">
        <g fill="#001E50" fill-rule="nonzero">
            <g>
                <g>
                    <g>
                        <path d="M3.365 12.815h4v1.33h-4v-1.33zm15.018 3.944l1.301 1.301.941-.94-1.301-1.301-.941.94zm2.241-6.988l-.941-.94-1.301 1.301.94.941 1.302-1.302zm.581 4.34v-1.33h-1.84v1.33h1.84zm.761-7.072c-.389-.142-.82.059-.961.448-.141.389.059.82.448.961.389.142.82-.058.961-.448.141-.39-.059-.819-.448-.961zm0 11.473c-.389-.142-.82.059-.961.448-.142.389.059.82.448.961.389.142.82-.059.961-.448.141-.389-.059-.82-.448-.961zm1.284-5.816c-.414 0-.75.336-.75.75s.336.75.75.75.75-.336.75-.75c0-.415-.336-.75-.75-.75zm-9.315-2.444l3.735 1.836v3l-3.757 1.685c-.148.327-.474.557-.857.557h-2.712v2.924h-1.33V17.33H7.718c-.219 0-.411.149-.464.362l-1.198 4.793C5.833 23.375 5.033 24 4.116 24H2.381c-.865 0-1.5-.813-1.29-1.653l1.171-4.683c.042-.169-.087-.334-.262-.334-.018 0-.036-.005-.054-.005H1.93v-.002C.859 17.285 0 16.411 0 15.33v-3.7c0-1.105.895-2 2-2h3.369c-.702-.286-1.279-.865-1.521-1.646L2.111 2.371 9.752 0l1.736 5.614c.39 1.257-.219 2.576-1.37 3.13l.288.886h2.65c.407 0 .747.261.879.622zM4.608 5.943h5.59L8.875 1.665l-5.1 1.582.833 2.696zM12.67 16v-5.04H2c-.369 0-.67.301-.67.67v3.7c0 .36.286.649.643.664h2.715v1.33H3.571c.038.217.036.441-.02.663l-1.17 4.683h1.735c.308 0 .575-.209.65-.508l1.198-4.793C6.165 16.563 6.887 16 7.718 16h1.296v-.002h1.33V16h2.326zm3.67-3.084L14 11.766v3.51l2.34-1.049v-1.311z" transform="translate(-726 -690) translate(120 645) translate(0 43) translate(606 2)"/>
                    </g>
                </g>
            </g>
        </g>
    </g>
</svg>
