<?xml version="1.0" encoding="UTF-8"?>
<svg width="24px" height="24px" viewBox="0 0 24 24" version="1.1" xmlns="http://www.w3.org/2000/svg" xmlns:xlink="http://www.w3.org/1999/xlink">
    <title>Icon/Status Order Received</title>
    <g id="Icon/Status-Order-Received" stroke="none" stroke-width="1" fill="none" fill-rule="evenodd">
        <path d="M12,-8.38440428e-13 C13.0416149,-8.38440428e-13 13.9697981,0.642717717 14.3154545,1.6033296 L15.2727273,1.6033296 C16.3414463,1.6033296 17.2506381,2.27106964 17.5875993,3.20307756 L18.5454545,3.20309177 C19.9010626,3.20309177 21,4.27744865 21,5.60273503 L21,21.6003567 C21,22.9256431 19.9010626,24 18.5454545,24 L5.45454545,24 C4.09893743,24 3,22.9256431 3,21.6003567 L3,5.60273503 C3,4.27744865 4.09893743,3.20309177 5.45454545,3.20309177 L6.41240072,3.20307756 C6.74936188,2.27106964 7.65855367,1.6033296 8.72727273,1.6033296 L9.68454545,1.6033296 C10.0302019,0.642717717 10.9583851,-8.38440428e-13 12,-8.38440428e-13 Z M6.272,4.802 L5.45454545,4.80285394 C5.00267611,4.80285394 4.63636364,5.1609729 4.63636364,5.60273503 L4.63636364,21.6003567 C4.63636364,22.0421189 5.00267611,22.4002378 5.45454545,22.4002378 L18.5454545,22.4002378 C18.9973239,22.4002378 19.3636364,22.0421189 19.3636364,21.6003567 L19.3636364,5.60273503 C19.3636364,5.1609729 18.9973239,4.80285394 18.5454545,4.80285394 L17.727,4.802 L17.7272727,5.60273503 C17.7272727,6.04449715 17.3609602,6.40261611 16.9090909,6.40261611 L7.09090909,6.40261611 C6.63903975,6.40261611 6.27272727,6.04449715 6.27272727,5.60273503 L6.272,4.802 Z M12.0146628,16.3036642 C12.4033676,16.3036642 12.7184751,16.6187717 12.7184751,17.0074765 C12.7184751,17.3961813 12.4033676,17.7112888 12.0146628,17.7112888 L7.79178886,17.7112888 C7.40308405,17.7112888 7.08797654,17.3961813 7.08797654,17.0074765 C7.08797654,16.6187717 7.40308405,16.3036642 7.79178886,16.3036642 L12.0146628,16.3036642 Z M16.2375367,13.4884149 C16.6262415,13.4884149 16.941349,13.8035224 16.941349,14.1922272 C16.941349,14.5809321 16.6262415,14.8960396 16.2375367,14.8960396 L7.79178886,14.8960396 C7.40308405,14.8960396 7.08797654,14.5809321 7.08797654,14.1922272 C7.08797654,13.8035224 7.40308405,13.4884149 7.79178886,13.4884149 L16.2375367,13.4884149 Z M16.2375367,10.6731657 C16.6262415,10.6731657 16.941349,10.9882732 16.941349,11.376978 C16.941349,11.7656828 16.6262415,12.0807903 16.2375367,12.0807903 L7.79178886,12.0807903 C7.40308405,12.0807903 7.08797654,11.7656828 7.08797654,11.376978 C7.08797654,10.9882732 7.40308405,10.6731657 7.79178886,10.6731657 L16.2375367,10.6731657 Z M12,1.6033296 C11.5481307,1.6033296 11.1818182,1.96144856 11.1818182,2.40321068 C11.1818182,2.84497281 10.8155057,3.20309177 10.3636364,3.20309177 L8.72727273,3.20309177 C8.27540339,3.20309177 7.90909091,3.56121073 7.90909091,4.00297286 L7.90909091,4.80285394 L16.0909091,4.80285394 L16.0909091,4.00297286 C16.0909091,3.56121073 15.7245966,3.20309177 15.2727273,3.20309177 L13.6363636,3.20309177 C13.1844943,3.20309177 12.8181818,2.84497281 12.8181818,2.40321068 C12.8181818,1.96144856 12.4518693,1.6033296 12,1.6033296 Z" id="24px/0rder-received" fill="#001E50" fill-rule="nonzero"></path>
    </g>
</svg>