<?xml version="1.0" encoding="UTF-8"?>
<svg width="24px" height="24px" viewBox="0 0 24 24" version="1.1" xmlns="http://www.w3.org/2000/svg" xmlns:xlink="http://www.w3.org/1999/xlink">
    <title>Icon/Status In Transit</title>
    <g id="Icon/Status-In-Transit" stroke="none" stroke-width="1" fill="none" fill-rule="evenodd">
        <path d="M24,20.8 L24,22 L23.5416,22 L22.3416,22.6 L21.4584,22.6 L20.2584,22 L19.9416,22 L18.7416,22.6 L17.8584,22.6 L16.6584,22 L16.3416,22 L15.1416,22.6 L14.2584,22.6 L13.0584,22 L12.7416,22 L11.5416,22.6 L10.6584,22.6 L9.4584,22 L9.1416,22 L7.9416,22.6 L7.0584,22.6 L5.8584,22 L5.5416,22 L4.3416,22.6 L3.4584,22.6 L2.2584,22 L1.9416,22 L0.7416,22.6 L0,22.6 L0,21.4 L0.4584,21.4 L1.6584,20.8 L2.5416,20.8 L3.7416,21.4 L4.0584,21.4 L5.2584,20.8 L6.1416,20.8 L7.3416,21.4 L7.6584,21.4 L8.8584,20.8 L9.7416,20.8 L10.9416,21.4 L11.2584,21.4 L12.4584,20.8 L13.3416,20.8 L14.5416,21.4 L14.8584,21.4 L16.0584,20.8 L16.9416,20.8 L18.1416,21.4 L18.4584,21.4 L19.6584,20.8 L20.5416,20.8 L21.7416,21.4 L22.0584,21.4 L23.2584,20.8 L24,20.8 Z M4.8,19.7806 C3.2076,17.3482 2.4,15.0676 2.4,13 L2.4,12.5386 L4.2,12.0586 L4.2,10.1812 L3,8.3812 L3,5.8 L5.4,5.8 L5.4,3.4 L10.2,3.4 L10.2,1 L13.8,1 L13.8,3.4 L18.6,3.4 L18.6,5.8 L21,5.8 L21,8.3818 L19.8,10.1818 L19.8,12.0592 L21.6,12.5392 L21.6,13 C21.6,15.0676 20.7924,17.3482 19.2,19.7806 L19.2,20.2 L18,20.2 L18,19.4182 L18.1008,19.267 C19.0812,17.7964 20.2374,15.6346 20.3844,13.4566 L18.6708,13 L18.6,13 L18.6,12.9814 L12.6,11.3812 L12.6,20.2 L11.4,20.2 L11.4,11.3812 L5.4,12.9814 L5.4,13 L5.3292,13 L3.6156,13.4572 C3.7626,15.6352 4.9188,17.7964 5.8992,19.2676 L6,19.4182 L6,20.2 L4.8,20.2 L4.8,19.7806 Z M11.4,3.4 L12.6,3.4 L12.6,2.2 L11.4,2.2 L11.4,3.4 Z M6.6,5.8 L17.4,5.8 L17.4,4.6 L6.6,4.6 L6.6,5.8 Z M5.4,9.8182 L5.4,11.7388 L12,9.979 L18.6,11.7388 L18.6,9.8182 L19.8,8.0182 L19.8,7 L18.6,7 L5.4,7 L4.2,7 L4.2,8.0182 L5.4,9.8182 Z M7.8,7.6 L6.6,7.6 L6.6,8.8 L7.8,8.8 L7.8,7.6 Z M10.2,7.6 L9,7.6 L9,8.8 L10.2,8.8 L10.2,7.6 Z M12.6,7.6 L11.4,7.6 L11.4,8.8 L12.6,8.8 L12.6,7.6 Z M15,7.6 L13.8,7.6 L13.8,8.8 L15,8.8 L15,7.6 Z M17.4,7.6 L16.2,7.6 L16.2,8.8 L17.4,8.8 L17.4,7.6 Z" id="24px/in-transit" stroke="#001E50" stroke-width="0.2" fill="#001E50" fill-rule="nonzero"></path>
    </g>
</svg>