<svg xmlns="http://www.w3.org/2000/svg" width="24" height="24" viewBox="0 0 24 24">
    <g fill="none" fill-rule="evenodd">
        <g fill="#001E50" fill-rule="nonzero">
            <g>
                <g>
                    <g>
                        <g>
                            <path d="M21.5 20.53l-4.81-4.93c1.296-1.652 2-3.69 2-5.79.032-2.443-.91-4.797-2.617-6.544C14.365 1.519 12.033.524 9.59.5 7.15.529 4.821 1.526 3.117 3.272 1.412 5.018.47 7.37.5 9.81c-.03 2.44.912 4.792 2.617 6.538C4.82 18.094 7.15 19.09 9.59 19.12c2.31-.005 4.528-.905 6.19-2.51l4.77 4.89.95-.97zM1.84 9.81c-.044-4.328 3.422-7.875 7.75-7.93 4.324.06 7.784 3.606 7.74 7.93.05 4.328-3.412 7.88-7.74 7.94-4.33-.06-7.794-3.61-7.75-7.94z" transform="translate(-853 -544) translate(120 528) translate(733) translate(0 16) translate(1 1)"/>
                        </g>
                    </g>
                </g>
            </g>
        </g>
    </g>
</svg>
